<svg width="67" height="66" viewBox="0 0 67 66" fill="none" xmlns="http://www.w3.org/2000/svg">
<path d="M48.8543 17.875H48.8822M19.5418 5.5H47.4585C55.1675 5.5 61.4168 11.6561 61.4168 19.25V46.75C61.4168 54.3439 55.1675 60.5 47.4585 60.5H19.5418C11.8329 60.5 5.5835 54.3439 5.5835 46.75V19.25C5.5835 11.6561 11.8329 5.5 19.5418 5.5ZM44.6668 31.2675C45.0114 33.5562 44.6145 35.8936 43.5327 37.9473C42.451 40.001 40.7394 41.6664 38.6414 42.7066C36.5434 43.7468 34.1658 44.1089 31.8469 43.7413C29.528 43.3737 27.3857 42.2952 25.7249 40.6592C24.0641 39.0232 22.9692 36.9129 22.5961 34.6286C22.223 32.3443 22.5905 30.0022 23.6465 27.9355C24.7025 25.8688 26.3931 24.1828 28.4779 23.1172C30.5627 22.0515 32.9356 21.6606 35.2589 22C37.6288 22.3462 39.8229 23.434 41.517 25.1028C43.2111 26.7717 44.3154 28.933 44.6668 31.2675Z" stroke="#86391F" stroke-width="4" stroke-linecap="round" stroke-linejoin="round"/>
</svg>
